<svg width="208" height="230" viewBox="0 0 208 230" fill="none" xmlns="http://www.w3.org/2000/svg">
<path opacity="0.2" d="M9.10004 61.6C8.3754 62.8446 7.9957 64.2599 8.00004 65.7V164.3C8.00769 165.724 8.39074 167.121 9.11056 168.35C9.83039 169.579 10.8615 170.597 12.1 171.3L100.1 220.8C101.286 221.478 102.634 221.823 104 221.8L104.9 115L9.10004 61.6Z" fill="#F1B43E"/>
<path d="M200 164.3V65.7C199.992 64.2758 199.609 62.8787 198.889 61.6497C198.17 60.4208 197.138 59.4033 195.9 58.7L107.9 9.2C106.714 8.51541 105.369 8.155 104 8.155C102.631 8.155 101.286 8.51541 100.1 9.2L12.1 58.7C10.8615 59.4033 9.83035 60.4208 9.11053 61.6497C8.3907 62.8787 8.00765 64.2758 8 65.7V164.3C8.00765 165.724 8.3907 167.121 9.11053 168.35C9.83035 169.579 10.8615 170.597 12.1 171.3L100.1 220.8C101.286 221.485 102.631 221.845 104 221.845C105.369 221.845 106.714 221.485 107.9 220.8L195.9 171.3C197.138 170.597 198.17 169.579 198.889 168.35C199.609 167.121 199.992 165.724 200 164.3Z" stroke="#F1B43E" stroke-width="16" stroke-linecap="round" stroke-linejoin="round"/>
<path d="M198.902 61.6L104.902 115L9.10156 61.6" stroke="#F1B43E" stroke-width="16" stroke-linecap="round" stroke-linejoin="round"/>
<path d="M104.9 115L104 221.8" stroke="#F1B43E" stroke-width="16" stroke-linecap="round" stroke-linejoin="round"/>
</svg>
