<svg width="136" height="109" viewBox="0 0 136 109" fill="none" xmlns="http://www.w3.org/2000/svg">
<g clip-path="url(#clip0_86_219)">
<path d="M121.261 27.0879C121.343 28.2679 121.343 29.4489 121.343 30.6399C121.343 66.9419 93.463 108.81 42.483 108.81V108.788C27.4379 108.813 12.6986 104.54 0 96.4719C14.639 98.2277 29.3795 94.1361 41.019 85.0859C29.159 84.8619 18.759 77.1969 15.125 66.0059C19.28 66.8009 23.561 66.6379 27.638 65.5339C14.708 62.9439 5.406 51.6829 5.406 38.6039V38.2569C9.26604 40.3866 13.5783 41.5652 17.985 41.6949C5.806 33.6269 2.053 17.5679 9.407 5.01187C23.478 22.1749 44.24 32.6099 66.527 33.7139C64.294 24.1719 67.345 14.1729 74.546 7.46487C85.709 -2.93613 103.265 -2.40313 113.759 8.65687C119.96 7.44408 125.911 5.1888 131.359 1.98687C129.278 8.36276 124.947 13.7634 119.176 17.1809C124.667 16.5399 130.031 15.0822 135.091 12.8559C131.364 18.3848 126.681 23.2044 121.261 27.0879Z" fill="#F3B743"/>
<path d="M121.261 27.0879C121.343 28.2679 121.343 29.4489 121.343 30.6399C121.343 66.9419 93.463 108.81 42.483 108.81V108.788C27.4379 108.813 12.6986 104.54 0 96.4719C14.6393 98.228 29.3803 94.1363 41.02 85.0859C29.16 84.8619 18.76 77.1969 15.126 66.0059C19.281 66.8009 23.562 66.6379 27.64 65.5339C14.71 62.9439 5.407 51.6829 5.407 38.6039V38.2569C9.26704 40.3866 13.5793 41.5652 17.986 41.6949C5.807 33.6269 2.053 17.5679 9.407 5.01187C23.478 22.1749 44.24 32.6099 66.527 33.7139C64.294 24.1719 67.345 14.1729 74.546 7.46487C85.709 -2.93613 103.265 -2.40313 113.759 8.65687C119.96 7.44408 125.911 5.1888 131.359 1.98687C129.278 8.36276 124.947 13.7634 119.176 17.1809C124.667 16.5399 130.031 15.0822 135.091 12.8559C131.364 18.3848 126.681 23.2044 121.261 27.0879Z" fill="#F1B43E"/>
</g>
<defs>
<clipPath id="clip0_86_219">
<rect width="136" height="109" fill="white"/>
</clipPath>
</defs>
</svg>
