<svg width="213" height="213" viewBox="0 0 213 213" fill="none" xmlns="http://www.w3.org/2000/svg">
<path opacity="0.2" d="M96 36.6866L36.3 59.0866C34.9844 59.5878 33.8222 60.4231 32.9279 61.5103C32.0335 62.5976 31.438 63.8991 31.2 65.2866L8 204.687L147.5 181.487C148.877 181.252 150.167 180.656 151.238 179.76C152.31 178.864 153.125 177.7 153.6 176.387L176 116.687L96 36.6866ZM92 140.687C88.0444 140.687 84.1776 139.514 80.8886 137.316C77.5996 135.118 75.0362 131.995 73.5224 128.34C72.0087 124.686 71.6126 120.664 72.3843 116.785C73.156 112.905 75.0608 109.342 77.8579 106.544C80.6549 103.747 84.2186 101.843 88.0982 101.071C91.9778 100.299 95.9991 100.695 99.6537 102.209C103.308 103.723 106.432 106.286 108.629 109.575C110.827 112.864 112 116.731 112 120.687C111.974 125.983 109.858 131.055 106.113 134.8C102.368 138.545 97.2962 140.66 92 140.687Z" fill="#F1B43E"/>
<path d="M92 140.687C103.046 140.687 112 131.732 112 120.687C112 109.641 103.046 100.687 92 100.687C80.9543 100.687 72 109.641 72 120.687C72 131.732 80.9543 140.687 92 140.687Z" stroke="#F1B43E" stroke-width="16" stroke-linecap="round" stroke-linejoin="round"/>
<path d="M8 204.687L77.9 134.787" stroke="#F1B43E" stroke-width="16" stroke-linecap="round" stroke-linejoin="round"/>
<path d="M8 204.687L147.5 181.487C148.877 181.252 150.167 180.656 151.238 179.76C152.31 178.864 153.125 177.7 153.6 176.387L176 116.687L96 36.6866L36.3 59.0866C34.9844 59.5878 33.8222 60.4231 32.9279 61.5103C32.0335 62.5976 31.438 63.8991 31.2 65.2866L8 204.687Z" stroke="#F1B43E" stroke-width="16" stroke-linecap="round" stroke-linejoin="round"/>
<path d="M176 116.687L202.3 90.3866C203.056 89.6422 203.656 88.7549 204.066 87.7764C204.476 86.7978 204.687 85.7475 204.687 84.6866C204.687 83.6257 204.476 82.5755 204.066 81.5969C203.656 80.6183 203.056 79.731 202.3 78.9866L133.7 10.3866C132.956 9.63074 132.068 9.03047 131.09 8.62074C130.111 8.21101 129.061 8 128 8C126.939 8 125.889 8.21101 124.91 8.62074C123.932 9.03047 123.044 9.63074 122.3 10.3866L96 36.6866" stroke="#F1B43E" stroke-width="16" stroke-linecap="round" stroke-linejoin="round"/>
</svg>
